<svg width="146" height="60" viewBox="0 0 146 60" fill="none" xmlns="http://www.w3.org/2000/svg">
<g clip-path="url(#clip0_6_13)">
<path d="M35.3558 27.4975C36.0813 30.3653 36.8069 33.2664 37.638 36.1005C38.4691 38.9682 39.3757 41.8368 40.1322 44.737C40.8195 47.1306 39.1871 49.4832 36.9135 49.9322C34.6004 50.4128 32.3564 48.8177 31.5627 46.425C29.2432 39.7667 26.7872 33.1343 25.0491 26.4435C23.3113 19.8176 22.2985 13.1258 21.7622 6.43487C21.5807 4.04128 23.931 1.62258 26.7193 1.08158C29.5373 0.567542 31.8877 2.13011 31.9942 4.52278C32.137 7.2919 32.3564 10.0341 32.7187 12.7762C33.0437 15.5194 33.5199 18.2551 34.026 20.9972C41.7943 19.4681 48.2702 18.2876 53.9522 17.49C53.7413 17.8061 53.5592 18.1295 53.3705 18.4195C52.1091 20.1402 51.0212 22.2438 50.4085 24.3138C45.8516 25.1374 40.9249 26.1925 35.3558 27.4975ZM119.92 3.69827C118.401 3.38222 118.832 4.71427 119.338 4.8128C121.295 5.19578 123.215 6.65888 123.569 8.31999C123.645 8.6695 123.532 9.71804 123.569 9.3676C123.645 8.98556 123.713 8.63697 123.751 8.25399C124.046 6.21084 122.271 4.14074 119.92 3.69827ZM94.1294 18.5451C99.4878 19.4681 105.495 20.6746 112.651 22.1777C113.232 19.4346 113.702 16.725 114.056 13.9829C114.457 11.2807 114.639 8.53751 114.819 5.82786C114.925 3.4352 117.313 1.87914 120.102 2.38668C122.889 2.89421 125.165 5.25433 124.953 7.64142C124.4 14.3063 123.396 20.9646 121.477 27.5571C119.527 34.2489 116.67 40.8142 113.845 47.4727C112.87 49.8328 110.557 51.3954 108.313 50.8878C106.001 50.4063 104.483 48.0536 105.352 45.6925C106.363 42.8249 107.482 39.9907 108.457 37.1555C109.439 34.3204 110.308 31.4537 111.132 28.6111C104.225 26.99 98.218 25.7175 92.8295 24.7293C92.9732 24.1549 93.1178 23.5813 93.2615 23.0078C93.374 22.5598 93.155 22.1117 92.7612 21.8282C92.944 21.5782 93.1178 21.3142 93.2615 21.0632C93.586 20.8717 93.7678 20.6217 93.8431 20.2656C93.9114 19.7581 94.0239 19.1846 94.1294 18.5451ZM141.335 18.4465C138.659 17.938 136.159 19.4681 135.584 21.8608C134.927 24.5044 134.209 27.1815 133.273 29.8251C132.364 32.5014 131.316 35.1784 130.121 37.7886C129.07 40.1813 130.083 42.5024 132.471 42.9503C134.859 43.3919 137.935 41.8368 139.128 39.4758C140.428 36.8591 141.584 34.2154 142.634 31.5718C143.647 28.9615 144.517 26.3114 145.196 23.6743C145.854 21.3142 143.972 18.9606 141.335 18.4465ZM131.133 10.0341C128.375 9.52655 125.995 11.0557 125.67 13.4493C125.013 18.2281 124.039 23.0348 122.662 27.7875C121.257 32.5933 119.375 37.3731 117.351 42.1268C116.339 44.5464 117.351 46.8731 119.664 47.3546C122.012 47.8352 124.908 46.2661 126.064 43.8799C128.345 39.1597 130.476 34.38 132.108 29.6002C133.696 24.8874 134.859 20.1076 135.577 15.3279C135.94 12.9677 133.846 10.5816 131.133 10.0341ZM130.228 12.0447C129.759 11.9462 129.282 10.6076 130.809 10.8976C133.158 11.3791 134.927 13.4493 134.678 15.4859C134.61 15.8688 134.534 16.2175 134.458 16.6005C134.428 16.9499 134.534 15.8688 134.458 15.5519C134.096 13.8908 132.215 12.4277 130.228 12.0447ZM140.285 20.4571C139.815 20.3577 139.484 19.0526 140.934 19.3426C143.246 19.7516 144.81 21.7957 144.26 23.8324C144.191 24.2144 144.086 24.5704 143.972 24.9199C143.867 25.2695 144.116 24.2478 144.086 23.8984C143.896 22.2698 142.197 20.8392 140.285 20.4571ZM5.34197 17.622C8.01684 17.042 10.4806 18.4791 11.0168 20.8392C11.6364 23.4828 12.3163 26.159 13.1476 28.7701C14.0169 31.4137 14.9616 34.0573 16.0117 36.701C16.9489 39.0547 15.7923 41.3878 13.3747 41.8294C10.9867 42.3109 8.05462 40.7817 7.00454 38.4476C5.84807 35.87 4.76775 33.2923 3.82305 30.6757C2.91663 28.0915 2.12322 25.487 1.43559 22.9028C0.853733 20.5817 2.69733 18.2281 5.34197 17.622ZM27.4749 3.12472C27.9809 3.02619 28.5249 1.68766 26.9758 1.9786C24.5505 2.42014 22.5935 4.52928 22.707 6.59939C22.707 6.97493 22.775 7.36441 22.775 7.71392C22.8123 8.08947 22.7442 7.0084 22.8502 6.65889C23.3869 5.00429 25.4498 3.50119 27.4749 3.12472ZM15.6114 8.95301C18.3619 8.37947 20.712 9.87608 21.0367 12.2687C21.6942 17.0819 22.5935 21.8942 23.863 26.6739C25.1247 31.4797 26.757 36.292 28.4876 41.0717C29.3562 43.4653 28.1625 45.792 25.8123 46.2661C23.4626 46.7085 20.712 45.1525 19.6992 42.7589C17.7121 38.0387 15.8301 33.2923 14.3492 28.5461C12.9059 23.8324 11.8558 19.0526 11.0924 14.3063C10.73 11.9462 12.8609 9.55907 15.6114 8.95301ZM16.4427 10.9571C16.9489 10.8317 17.417 9.49308 15.8604 9.81656C13.5107 10.3241 11.7346 12.4277 11.9918 14.4643C12.0598 14.8463 12.0976 15.2023 12.1656 15.5788C12.2413 15.9274 12.1355 14.8798 12.2034 14.5303C12.5736 12.8692 14.4851 11.3791 16.4427 10.9571ZM6.35478 19.5601C6.82311 19.4347 7.14829 18.1295 5.69728 18.4465C3.38496 18.9606 1.90382 21.0306 2.37265 23.0348C2.44779 23.4168 2.5158 23.7728 2.62168 24.1224C2.7351 24.4718 2.5158 23.4493 2.55367 23.1007C2.7351 21.4722 4.47291 19.9822 6.35478 19.5601Z" fill="#0F487D" stroke="white"/>
<path d="M74.9175 42.8748L75.6694 59.0199C75.7076 59.3698 75.3841 59.6927 74.9853 59.7187C75.7829 59.6601 87.442 58.9863 90.465 59.594C90.285 59.5019 90.18 59.3762 90.143 59.1845C90.104 59.152 87.479 48.3406 88.849 42.1758C88.307 42.4002 85.178 43.4825 82.079 41.4099L80.3181 40.2615L80.86 51.6211C80.86 52.0036 80.5366 52.3265 80.1007 52.3265C79.7093 52.3265 79.3402 52.0362 79.3402 51.6872L78.7314 38.8888C78.7314 38.7305 78.7611 38.6049 78.8746 38.4792C79.1228 38.1563 79.5958 38.0968 79.949 38.3211L82.974 40.3602C85.636 42.1163 88.231 40.9678 88.268 40.9678C88.555 40.8097 88.916 40.9018 89.172 41.1261C89.42 40.2941 89.818 39.6212 90.285 39.1131C93.813 35.3504 90.902 25.6213 90.902 25.5887C90.865 25.4966 90.865 25.3709 90.902 25.2722L91.044 24.6646C91.15 24.1825 91.33 23.5497 91.511 22.8163C91.082 23.1001 90.608 23.2983 90.143 23.4239C89.277 23.6418 88.412 23.6418 87.592 23.4836C86.795 23.3244 86.042 23.008 85.463 22.6255L85.395 22.592C85.14 22.4338 84.93 22.242 84.741 22.0178C84.02 22.7837 83.199 23.2258 82.296 23.4175C81.3257 23.6744 80.3181 23.6418 79.3784 23.4501C78.4747 23.2593 77.6103 22.9018 77.0005 22.4934C76.7905 22.3342 76.6102 22.1769 76.4214 22.0512C76.1361 22.3342 75.8497 22.6255 75.5273 22.8163C74.9472 23.1932 74.3002 23.4566 73.6532 23.5497C73.684 23.7078 73.6532 23.8335 73.5779 23.9917C73.4358 24.1825 73.1876 24.3081 72.932 24.3081C72.7135 24.4998 72.4282 24.6581 72.1344 24.7902C72.0294 24.8237 71.9541 24.8563 71.8481 24.8888C73.2555 25.2388 74.5865 25.8465 75.7744 26.645C77.1734 26.0047 81.6417 24.2486 85.064 25.4631C85.456 25.5887 85.643 26.0047 85.494 26.3546C85.351 26.671 84.884 26.8693 84.523 26.7046C81.0711 25.4966 76.099 28.0112 76.0608 28.0112C75.8126 28.1359 75.4435 28.1359 75.1953 27.9517C73.3234 26.6115 71.0887 25.813 68.644 25.9061C66.4846 26.0047 64.1841 26.8367 61.7309 28.618C61.4456 28.8432 60.9418 28.8097 60.6936 28.5259C60.3998 28.242 60.4751 27.8195 60.7986 27.6017C62.2729 26.5129 63.7174 25.7469 65.1164 25.2388C60.7615 24.7641 58.565 23.2983 58.565 23.2983C58.2107 23.0741 58.1354 22.6581 58.3836 22.3417C58.6021 22.0513 59.0762 21.9582 59.4294 22.1769C59.4294 22.1769 62.2803 24.0643 68.1105 24.0643C69.6515 24.0643 70.7355 23.9051 71.4567 23.5822C71.3146 23.4836 71.1343 23.424 70.9911 23.3905H70.9529C63.1076 21.6353 64.5065 18.8889 65.8005 17.5822C57.3761 15.3515 57.1279 14.3352 54.3151 19.0546C52.9533 20.8758 51.5766 23.5561 51.1482 26.2029C50.8247 28.1499 50.9678 30.0307 52.0507 31.437C52.8101 32.4272 53.6745 33.5421 54.3904 34.4663C55.1795 35.4565 55.9326 36.4132 56.5488 37.1131C58.5268 39.4425 61.7309 40.1423 62.1679 40.2419H62.2358C62.4829 40.3071 68.0649 41.4825 70.8023 40.3071C73.6161 39.06 74.6619 37.3699 74.6619 37.3699C74.8729 37.0535 75.3088 36.9279 75.6694 37.1131C76.0608 37.3038 76.1658 37.7264 75.9558 38.0437C75.9558 38.0437 74.7297 40.0502 71.4567 41.4891C69.0809 42.5388 65.0792 42.0967 63.063 41.7728C63.9656 44.8682 64.357 47.931 64.3262 50.9939C64.2891 54.4122 63.7471 57.8184 62.7767 61.2376C62.7395 61.3037 62.7098 61.3298 62.7098 61.3958C63.5742 60.9137 65.5905 60.0892 69.223 59.8649C72.8567 59.6397 74.2259 59.6732 74.6916 59.7058C74.4062 59.6071 74.1952 59.3893 74.157 59.0654L73.3987 42.9538C73.3987 42.5713 73.7211 42.2484 74.157 42.2484C74.5568 42.2019 74.9175 42.4922 74.9175 42.8748ZM72.2543 21.9191C71.9987 21.2788 71.427 20.579 70.5923 19.8466C69.9082 19.2062 68.7193 18.632 67.3203 18.0913C66.598 18.7567 65.1609 20.7046 71.3146 22.0773H71.3517C71.7431 22.1695 72.074 22.3286 72.3603 22.4869C72.3603 22.2952 72.3222 22.1034 72.2543 21.9191ZM85.538 12.7903C85.14 16.1099 85.463 19.2649 85.538 20.5129C85.538 20.5129 85.568 20.5389 85.568 20.5725V20.605C85.606 20.8889 85.893 21.2128 86.329 21.5292H86.366C86.795 21.8205 87.336 22.0774 87.908 22.1695C88.487 22.2952 89.097 22.2952 89.676 22.1369C90.473 21.9452 91.187 21.4035 91.692 20.4142C91.766 20.2886 91.909 20.163 92.09 20.0969C92.88 15.787 93.241 10.3687 90.075 9.56928C88.412 9.16073 87.411 9.37756 86.757 9.95267C86.073 10.5595 85.749 11.6093 85.538 12.7577V12.7903ZM77.219 12.0243V20.605C77.2572 20.8628 77.5053 21.1467 77.9041 21.4035C78.3697 21.7209 79.0167 22.0113 79.739 22.1369C80.4305 22.2952 81.1835 22.2952 81.8676 22.1369C82.658 21.9452 83.38 21.5292 83.921 20.7381C83.884 20.6125 83.847 20.4803 83.847 20.2951C83.704 19.022 83.417 15.7935 84.026 12.606L84.064 12.5725C84.094 12.2561 84.456 9.06115 82.334 8.58652C78.3697 7.72193 77.4672 11.0416 77.2572 11.8401V11.8671C77.219 11.9257 77.219 11.9592 77.219 12.0243ZM66.3806 16.3678C66.3499 15.3123 66.1992 13.9396 65.9511 12.0839L65.9139 11.8335L65.8461 11.4176C65.7708 11.0742 65.6276 10.7513 65.4855 10.4338C64.9435 9.53671 64.0865 8.89641 63.0779 8.48692C62.0321 8.10442 60.8432 7.97226 59.7603 8.17049C59.3318 8.26262 58.933 8.36128 58.5798 8.52042C56.5254 9.44363 57.1056 12.9225 57.3538 14.1044C58.7527 14.3547 62.8223 15.1867 66.3806 16.3678ZM73.8717 22.1034C74.1199 22.0113 74.3755 21.9191 74.6322 21.76C75.0225 21.4696 75.3841 21.0871 75.7076 20.5464V11.2928C75.7076 11.2594 75.7076 11.2594 75.7076 11.2333C75.6694 11.0081 75.6694 10.8173 75.6397 10.593C75.4965 9.7945 75.0606 9.08813 74.3755 8.61256C73.6532 8.09791 72.6456 7.78149 71.3146 7.78149C70.8182 7.78149 70.307 7.84664 69.7724 7.91271H69.7353C67.8612 8.19657 67.4709 9.91922 67.4327 11.035C67.4327 11.2928 67.4327 11.5162 67.4327 11.6754L67.5006 12.0839L67.6438 13.3319C67.8241 14.7307 67.9673 16.2952 67.8241 16.8433C69.449 17.4501 70.8479 18.1499 71.6826 18.8823C72.6531 19.7414 73.3753 20.6386 73.6988 21.4696C73.7667 21.6949 73.8346 21.9191 73.8717 22.1034Z" fill="#990000" stroke="white"/>
</g>
<defs>
<clipPath id="clip0_6_13">
<rect width="146" height="60" fill="white"/>
</clipPath>
</defs>
</svg>
