<svg width="25" height="24" viewBox="0 0 25 24" fill="none" xmlns="http://www.w3.org/2000/svg">
<g clip-path="url(#clip0_25_6)">
<path d="M22.1666 0.952393H2.83329C1.50413 0.952393 0.416626 2.19525 0.416626 3.7143V20.2857C0.416626 21.8048 1.50413 23.0476 2.83329 23.0476H22.1666C23.4958 23.0476 24.5833 21.8048 24.5833 20.2857V3.7143C24.5833 2.19525 23.4958 0.952393 22.1666 0.952393ZM21.6833 6.82144L13.7808 12.4696C12.9954 13.0358 12.0045 13.0358 11.2191 12.4696L3.31663 6.82144C3.01454 6.60048 2.83329 6.22764 2.83329 5.82716C2.83329 4.90192 3.71538 4.34953 4.40413 4.83287L12.5 10.6191L20.5958 4.83287C21.2845 4.34953 22.1666 4.90192 22.1666 5.82716C22.1666 6.22764 21.9854 6.60048 21.6833 6.82144Z" fill="white"/>
</g>
<defs>
<clipPath id="clip0_25_6">
<rect width="25" height="24" fill="white"/>
</clipPath>
</defs>
</svg>
